<?xml version="1.0" encoding="UTF-8"?>
<svg id="Layer_1" data-name="Layer 1" xmlns="http://www.w3.org/2000/svg" viewBox="0 0 288 288">
  <defs>
    <style>
      .cls-1 {
        letter-spacing: -.02em;
      }

      .cls-2 {
        letter-spacing: .01em;
      }

      .cls-3 {
        font-family: Gelica-SemiBold, Gelica;
        font-size: 15px;
        font-weight: 600;
      }

      .cls-3, .cls-4, .cls-5 {
        fill: #eb9e8d;
      }

      .cls-6 {
        fill: none;
        stroke: #eb9e8d;
        stroke-miterlimit: 10;
        stroke-width: 2.67px;
      }

      .cls-4 {
        stroke-width: 0px;
      }

      .cls-7 {
        letter-spacing: -.04em;
      }

      .cls-5 {
        font-family: Gelica-Medium, Gelica;
        font-size: 14px;
        font-weight: 500;
      }
    </style>
  </defs>
  <text class="cls-5" transform="translate(96.74 203.71)"><tspan class="cls-7" x="0" y="0">P</tspan><tspan class="cls-2" x="8.22" y="0">AST</tspan><tspan class="cls-1" x="34.72" y="0">R</tspan><tspan class="cls-2" x="44.09" y="0">Y SHOP</tspan></text>
  <g>
    <path class="cls-4" d="M93.69,151.89c-1.23,0-1.87-.72-1.87.51,0,1.51,1.51,4.18,4.04,4.18,4.4,0,13.69-7.57,13.69-15.57,0-5.62-3.46-9.3-9.08-9.3-9.8,0-20.18,10.09-20.18,19.61,0,14.71,17.59,15.07,17.59,23.65,0,3.1-2.09,5.05-5.05,5.05-2.74,0-3.96-1.52-4.18-1.73-.22-.43-.43-.65-.79-.65-1.08,0-2.81,2.52-2.81,4.18,0,.43,1.66,3.6,7.78,3.6s10.74-4.83,10.74-10.67c0-12.04-17.66-12.25-17.66-23.43,0-7.86,8.87-14.2,14.2-14.2,2.88,0,3.96,1.51,3.96,3.96,0,4.76-6.49,10.81-10.38,10.81Z"/>
    <path class="cls-4" d="M206.82,148.93c-4.9.22-9.95.29-14.35.29v-12.62c0-1.73-1.51-3.17-3.89-3.17-1.01,0-2.31.29-2.31.79s.72.65.72,2.74v12.18c-3.89-.07-6.49-.22-6.49-.22-2.09,0-.79,4.83,1.51,4.83,0,0,1.8.14,4.97.14v17.09c-.87,4.4-3.17,9.08-8.79,9.08-3.75,0-5.69-2.02-6.7-4.47,6.99-2.09,10.67-8.43,10.67-13.77,0-4.33-2.45-7.28-6.49-7.28-5.55,0-11.03,6.85-11.03,16,0,1.05.09,2.05.25,3-1.21,3.48-3.58,6.52-8.11,6.52-3.75,0-5.69-2.02-6.7-4.47,6.99-2.09,10.67-8.43,10.67-13.77,0-4.33-2.45-7.28-6.49-7.28-5.55,0-11.03,6.85-11.03,16,0,.03,0,.06,0,.1-2.13-1.78-3.51-4.74-4.26-7.45v-4.75c0-1.73-1.51-3.17-3.89-3.17-1.01,0-1.87.5-1.87,1.23,0,.5.29.94.29,2.31v16.15c0,2.74-.86,5.12-3.6,5.12s-3.46-2.09-3.53-5.12v-16.51c0-1.73-1.51-3.17-3.89-3.17-1.01,0-1.87.5-1.87,1.23,0,.5.29.94.29,2.31v16.15c0,2.74-.86,5.12-3.6,5.12-3.1,0-3.53-2.52-3.53-5.12v-16.51c0-1.73-1.51-3.17-3.89-3.17-1.01,0-1.87.5-1.87,1.23,0,.5.29.94.29,2.31v16.08c0,3.89.79,9.95,8.79,9.95,2.74,0,5.62-1.59,6.56-3.46,1.01,1.88,3.46,3.46,6.56,3.46,7.42,0,8.79-5.41,8.79-9.88v-2.15c1.42,1.57,3.15,2.82,5.22,3.47,1.98,5.47,6.78,8.56,11.79,8.56,5.66,0,9.11-2.49,11.18-5.49,2.41,3.54,6.25,5.49,10.23,5.49,4.8,0,8.01-1.8,10.14-4.17.99,2.92,3.22,4.17,6.08,4.17,6.2,0,9.08-6.49,10.31-11.25.07-.29.07-.43.07-.5,0-1.37-1.37-2.96-2.52-2.96-.72,0-1.44.65-1.73,2.16-.65,3.17-1.95,7.79-4.83,7.79-1.51,0-2.45-1.01-2.45-3.32v-22.85c3.82,0,8.07,0,13.84-.14,1.87-.07,2.52-6.99.5-4.83ZM153.62,159.38c.94,0,1.51.94,1.51,2.52,0,4.33-2.31,8.07-5.91,9.73,0-.43-.07-.87-.07-1.3-.14-3.03.94-10.96,4.47-10.96ZM170.56,170.34c-.14-3.03.94-10.96,4.47-10.96.94,0,1.51.94,1.51,2.52,0,4.33-2.31,8.07-5.91,9.73,0-.43-.07-.87-.07-1.3Z"/>
  </g>
  <g>
    <path class="cls-4" d="M146.66,51.04c0,1.97-1.6,3.57-3.57,3.57s-3.57-1.6-3.57-3.57,1.6-3.57,3.57-3.57,3.57,1.6,3.57,3.57Z"/>
    <path class="cls-4" d="M130.45,52.02c.34,1.94-.95,3.79-2.89,4.13-1.94.34-3.79-.95-4.13-2.89-.34-1.94.95-3.79,2.89-4.13,1.94-.34,3.79.95,4.13,2.89Z"/>
    <path class="cls-4" d="M114.65,55.81c.67,1.85-.28,3.9-2.13,4.57-1.85.67-3.9-.28-4.57-2.13-.68-1.85.28-3.9,2.13-4.57,1.85-.67,3.9.28,4.57,2.13Z"/>
    <path class="cls-4" d="M99.75,62.28c.99,1.71.4,3.89-1.3,4.87-1.71.98-3.89.4-4.87-1.31-.99-1.71-.4-3.89,1.3-4.87,1.71-.98,3.89-.4,4.87,1.31Z"/>
    <path class="cls-4" d="M86.2,71.24c1.27,1.51,1.07,3.76-.44,5.02-1.51,1.26-3.76,1.07-5.02-.44-1.27-1.51-1.07-3.76.44-5.02,1.51-1.27,3.76-1.07,5.02.44Z"/>
    <path class="cls-4" d="M74.41,82.41c1.51,1.27,1.71,3.51.44,5.02-1.27,1.51-3.52,1.71-5.02.44-1.51-1.27-1.71-3.51-.44-5.02,1.27-1.51,3.51-1.71,5.02-.44Z"/>
    <path class="cls-4" d="M64.74,95.47c1.71.98,2.29,3.16,1.31,4.87-.99,1.71-3.17,2.29-4.87,1.3-1.71-.98-2.29-3.16-1.31-4.87.99-1.71,3.17-2.29,4.87-1.3Z"/>
    <path class="cls-4" d="M57.48,110c1.85.67,2.8,2.72,2.13,4.57-.67,1.85-2.72,2.81-4.57,2.13-1.85-.67-2.81-2.72-2.13-4.57.67-1.85,2.72-2.81,4.57-2.13Z"/>
    <path class="cls-4" d="M52.86,125.57c1.94.34,3.23,2.19,2.89,4.13-.34,1.94-2.19,3.24-4.13,2.89-1.94-.34-3.23-2.19-2.89-4.13.34-1.94,2.19-3.23,4.13-2.89Z"/>
    <path class="cls-4" d="M51.01,141.71c1.97,0,3.57,1.6,3.57,3.56,0,1.97-1.6,3.57-3.57,3.57-1.97,0-3.57-1.59-3.57-3.57,0-1.97,1.6-3.57,3.57-3.57Z"/>
    <path class="cls-4" d="M52,157.93c1.94-.34,3.79.95,4.13,2.89.34,1.94-.95,3.79-2.89,4.13-1.94.34-3.79-.95-4.13-2.9-.34-1.94.95-3.79,2.89-4.13Z"/>
    <path class="cls-4" d="M55.78,173.72c1.85-.67,3.9.28,4.57,2.13.67,1.85-.28,3.9-2.13,4.57-1.85.68-3.9-.28-4.57-2.13-.67-1.85.28-3.9,2.13-4.57Z"/>
    <path class="cls-4" d="M62.25,188.63c1.71-.99,3.89-.4,4.87,1.3.98,1.71.4,3.89-1.31,4.87-1.71.99-3.89.4-4.87-1.31-.99-1.71-.4-3.88,1.3-4.87Z"/>
    <path class="cls-4" d="M71.21,202.17c1.51-1.27,3.76-1.07,5.02.44,1.27,1.51,1.07,3.76-.44,5.03-1.51,1.27-3.76,1.07-5.02-.44-1.27-1.51-1.07-3.76.44-5.02Z"/>
    <path class="cls-4" d="M82.38,213.96c1.27-1.51,3.51-1.71,5.02-.44,1.51,1.27,1.71,3.52.44,5.03-1.27,1.51-3.52,1.71-5.02.44-1.51-1.27-1.71-3.51-.44-5.02Z"/>
    <path class="cls-4" d="M95.43,223.63c.99-1.71,3.17-2.29,4.87-1.31,1.71.99,2.29,3.17,1.3,4.87-.98,1.71-3.16,2.29-4.87,1.3-1.71-.98-2.29-3.16-1.31-4.87Z"/>
    <path class="cls-4" d="M109.97,230.89c.67-1.85,2.72-2.8,4.57-2.13,1.85.68,2.81,2.72,2.13,4.57-.67,1.85-2.72,2.81-4.57,2.13-1.85-.67-2.8-2.72-2.13-4.57Z"/>
    <path class="cls-4" d="M125.54,235.51c.34-1.94,2.19-3.23,4.13-2.9,1.94.34,3.24,2.19,2.89,4.14-.34,1.94-2.19,3.23-4.13,2.89-1.94-.34-3.24-2.19-2.89-4.13Z"/>
    <path class="cls-4" d="M141.68,237.36c0-1.97,1.6-3.57,3.56-3.57,1.97,0,3.57,1.6,3.57,3.57,0,1.97-1.59,3.57-3.56,3.56-1.97,0-3.57-1.6-3.57-3.56Z"/>
    <path class="cls-4" d="M157.89,236.38c-.34-1.94.95-3.79,2.89-4.13,1.94-.34,3.79.95,4.13,2.9.34,1.94-.95,3.79-2.89,4.13-1.94.35-3.79-.95-4.13-2.89Z"/>
    <path class="cls-4" d="M173.69,232.59c-.67-1.85.28-3.9,2.13-4.57,1.85-.67,3.9.28,4.57,2.13.67,1.85-.28,3.9-2.13,4.57-1.85.68-3.9-.28-4.57-2.13Z"/>
    <path class="cls-4" d="M188.59,226.12c-.98-1.71-.4-3.89,1.3-4.87,1.71-.98,3.89-.4,4.87,1.31.98,1.71.4,3.89-1.31,4.87-1.71.99-3.89.4-4.87-1.3Z"/>
    <path class="cls-4" d="M202.14,217.17c-1.27-1.51-1.07-3.76.44-5.03,1.51-1.27,3.76-1.07,5.03.44,1.27,1.51,1.07,3.76-.44,5.02-1.51,1.27-3.76,1.07-5.02-.44Z"/>
    <path class="cls-4" d="M213.93,205.99c-1.51-1.27-1.71-3.51-.44-5.02,1.27-1.51,3.52-1.71,5.02-.44,1.51,1.27,1.71,3.51.44,5.02-1.27,1.51-3.51,1.71-5.02.44Z"/>
    <path class="cls-4" d="M223.6,192.94c-1.71-.99-2.29-3.17-1.31-4.87.99-1.71,3.17-2.29,4.87-1.3,1.71.99,2.29,3.17,1.3,4.87-.99,1.71-3.16,2.29-4.87,1.31Z"/>
    <path class="cls-4" d="M230.86,178.4c-1.85-.67-2.81-2.72-2.13-4.57.68-1.85,2.72-2.81,4.57-2.13,1.85.67,2.81,2.72,2.13,4.57-.67,1.85-2.72,2.81-4.57,2.13Z"/>
    <path class="cls-4" d="M235.48,162.83c-1.94-.34-3.23-2.19-2.9-4.13.34-1.94,2.19-3.24,4.14-2.89,1.94.34,3.23,2.19,2.89,4.13-.34,1.94-2.19,3.23-4.13,2.89Z"/>
    <path class="cls-4" d="M237.33,146.69c-1.97,0-3.57-1.6-3.57-3.57,0-1.97,1.6-3.57,3.57-3.57,1.97,0,3.57,1.59,3.56,3.57,0,1.97-1.6,3.57-3.56,3.57Z"/>
    <path class="cls-4" d="M236.34,130.48c-1.94.34-3.79-.95-4.13-2.89-.34-1.94.95-3.79,2.9-4.13,1.94-.34,3.79.95,4.13,2.89.34,1.94-.95,3.79-2.89,4.13Z"/>
    <path class="cls-4" d="M232.56,114.68c-1.85.67-3.9-.28-4.57-2.13-.67-1.85.28-3.9,2.14-4.57,1.85-.67,3.9.28,4.56,2.13.68,1.85-.28,3.9-2.13,4.57Z"/>
    <path class="cls-4" d="M226.09,99.78c-1.71.98-3.89.4-4.87-1.3-.98-1.71-.4-3.89,1.31-4.87,1.7-.98,3.88-.4,4.87,1.31.99,1.71.4,3.88-1.3,4.87Z"/>
    <path class="cls-4" d="M217.13,86.23c-1.51,1.27-3.76,1.07-5.02-.44-1.27-1.51-1.07-3.76.44-5.03,1.51-1.27,3.75-1.07,5.02.44,1.27,1.51,1.07,3.76-.44,5.02Z"/>
    <path class="cls-4" d="M205.96,74.44c-1.27,1.51-3.51,1.71-5.02.44-1.51-1.27-1.71-3.52-.44-5.03,1.27-1.51,3.51-1.7,5.02-.43,1.51,1.27,1.71,3.51.44,5.02Z"/>
    <path class="cls-4" d="M192.91,64.77c-.98,1.71-3.17,2.29-4.87,1.31-1.71-.99-2.29-3.17-1.3-4.88.98-1.7,3.16-2.29,4.87-1.3,1.71.98,2.29,3.16,1.31,4.87Z"/>
    <path class="cls-4" d="M178.37,57.51c-.67,1.85-2.72,2.8-4.57,2.13-1.85-.68-2.81-2.72-2.13-4.58.67-1.85,2.72-2.8,4.57-2.13,1.85.67,2.81,2.72,2.13,4.57Z"/>
    <path class="cls-4" d="M162.8,52.89c-.34,1.94-2.19,3.23-4.13,2.9-1.94-.34-3.24-2.19-2.89-4.14.34-1.94,2.18-3.23,4.13-2.88,1.94.34,3.24,2.19,2.89,4.13Z"/>
  </g>
  <g>
    <polygon class="cls-4" points="137.3 114.38 137.3 114.38 137.3 114.38 137.3 114.38"/>
    <path class="cls-4" d="M163.06,110.56c-.67-4.09-2.85-17.49-18.48-17.49-16.44,0-18.93,12.67-19.1,17.5-1.35.1-2.41,1.06-2.41,2.24,0,1.25,1.19,2.26,2.66,2.26.56,0,1.08-.15,1.51-.4.18.3.46.57.81.78l2.54,18.28c.07.52.51.9,1.04.9h25.1c.52,0,.96-.39,1.04-.9l2.49-17.91c.26.03.53.06.81.06,2.34,0,4.23-1.26,4.23-2.82,0-1.07-.9-2-2.22-2.48ZM155.81,132.53h-2.25l1.64-12.81c.07-.57-.33-1.1-.9-1.17-.58-.08-1.1.33-1.17.9l-1.67,13.07h-2.07l1.14-12.87c.05-.58-.37-1.08-.95-1.13-.58-.05-1.08.37-1.13.95l-1.16,13.06h-2.07v-13c0-.58-.47-1.05-1.05-1.05s-1.05.47-1.05,1.05v13h-2.07l-1.16-13.06c-.05-.57-.55-1-1.13-.95-.58.05-1,.56-.95,1.13l1.14,12.87h-2.07l-1.67-13.07c-.07-.57-.6-.98-1.17-.9-.57.07-.98.6-.9,1.17l1.64,12.81h-2.25l-2.3-16.57c1.32-.04,2.42-.63,2.79-1.44.54.32,1.25.52,2.03.52.89,0,1.69-.26,2.25-.66-.02,0-.05,0,0,0,.05,0,.02,0,0,0,.08.76,1.31,1.39,2.48,1.39,1,0,1.85-.44,2.12-1.05.38.44,1.1.74,1.92.74.69,0,1.3-.21,1.71-.54.4.67,1.38,1.14,2.53,1.14,1.42,0,2.67-.73,2.8-1.65.46.74,1.54,1.26,2.82,1.26,1.6,0,3.14-.85,3.29-1.89.21.54.66,1,1.26,1.37l-2.42,17.4Z"/>
  </g>
  <text class="cls-3" transform="translate(98.37 96.1) rotate(-39.25)"><tspan x="0" y="0">A</tspan></text>
  <text class="cls-3" transform="translate(107.09 89.05) rotate(-29.25)"><tspan x="0" y="0">D</tspan></text>
  <text class="cls-3" transform="translate(117.59 83.29) rotate(-19)"><tspan x="0" y="0">R</tspan></text>
  <text class="cls-3" transform="translate(128.78 79.72) rotate(-11.03)"><tspan x="0" y="0">I</tspan></text>
  <text class="cls-3" transform="translate(135.33 78.39) rotate(-3.56)"><tspan x="0" y="0">E</tspan></text>
  <text class="cls-3" transform="translate(145.7 77.77) rotate(5.93)"><tspan x="0" y="0">N</tspan></text>
  <text class="cls-3" transform="translate(157.56 79.1) rotate(16.28)"><tspan x="0" y="0">N</tspan></text>
  <text class="cls-3" transform="translate(168.98 82.6) rotate(26.01)"><tspan x="0" y="0">E</tspan></text>
  <text class="cls-3" transform="translate(178.45 87.49) rotate(32.94)"><tspan x="0" y="0">’</tspan></text>
  <text class="cls-3" transform="translate(182.89 90.28) rotate(39.66)"><tspan x="0" y="0">S</tspan></text>
  <circle class="cls-6" cx="144.17" cy="144.2" r="102.5"/>
</svg>